<mxfile host="app.diagrams.net" modified="2024-03-03T16:26:58.890Z" agent="Mozilla/5.0 (Windows NT 10.0; Win64; x64) AppleWebKit/537.36 (KHTML, like Gecko) Chrome/122.0.0.0 Safari/537.36" etag="6BVEsV__HibRyajRU9mY" version="24.0.1" type="github">
  <diagram name="Page-1" id="G22E-J5BrleeAr-7TfrW">
    <mxGraphModel dx="1509" dy="796" grid="1" gridSize="10" guides="1" tooltips="1" connect="1" arrows="1" fold="1" page="1" pageScale="1" pageWidth="850" pageHeight="1100" math="0" shadow="0">
      <root>
        <mxCell id="0" />
        <mxCell id="1" parent="0" />
        <mxCell id="-pYJrEDb6GAxt2HeoF4e-1" value="" style="rounded=1;whiteSpace=wrap;html=1;" vertex="1" parent="1">
          <mxGeometry x="320" y="40" width="210" height="80" as="geometry" />
        </mxCell>
        <mxCell id="-pYJrEDb6GAxt2HeoF4e-6" style="edgeStyle=orthogonalEdgeStyle;rounded=0;orthogonalLoop=1;jettySize=auto;html=1;exitX=0.5;exitY=0;exitDx=0;exitDy=0;entryX=0.5;entryY=1;entryDx=0;entryDy=0;" edge="1" parent="1" source="-pYJrEDb6GAxt2HeoF4e-4" target="-pYJrEDb6GAxt2HeoF4e-1">
          <mxGeometry relative="1" as="geometry">
            <mxPoint x="420" y="130" as="targetPoint" />
            <Array as="points">
              <mxPoint x="185" y="171" />
              <mxPoint x="425" y="171" />
            </Array>
          </mxGeometry>
        </mxCell>
        <mxCell id="-pYJrEDb6GAxt2HeoF4e-4" value="" style="rounded=1;whiteSpace=wrap;html=1;" vertex="1" parent="1">
          <mxGeometry x="80" y="210" width="210" height="80" as="geometry" />
        </mxCell>
      </root>
    </mxGraphModel>
  </diagram>
</mxfile>
